Coordinates
version=1
nRows=34
nColumns=38
inDegrees=no

Units are S.I. units (second, meters, Newtons, ...)
If the header above contains a line with 'inDegrees', this indicates whether rotational values are in degrees (yes) or radians (no).

endheader
time	pelvis_tilt	pelvis_list	pelvis_rotation	pelvis_tx	pelvis_ty	pelvis_tz	hip_flexion_r	hip_adduction_r	hip_rotation_r	knee_angle_r	ankle_angle_r	subtalar_angle_r	mtp_angle_r	hip_flexion_l	hip_adduction_l	hip_rotation_l	knee_angle_l	ankle_angle_l	subtalar_angle_l	mtp_angle_l	lumbar_extension	lumbar_bending	lumbar_rotation	arm_flex_r	arm_add_r	arm_rot_r	elbow_flex_r	pro_sup_r	wrist_flex_r	wrist_dev_r	arm_flex_l	arm_add_l	arm_rot_l	elbow_flex_l	pro_sup_l	wrist_flex_l	wrist_dev_l
1.11	2.82123	1.29509	-1.08993	0.635155	0.767912	0.954622	-0.112461	0.104108	-0.242376	0.338303	-0.113956	0	0	-0.0861127	-0.282218	-0.166219	1.33703	-0.171358	0	0	-0.356847	0.111357	-0.256171	0.234255	-0.472297	1.40935	0.655935	0.128872	0	0	-0.215397	-0.386524	0.0663644	0.964844	1.51607	0	0
1.12	2.84159	1.29095	-1.11425	0.636002	0.778693	0.956509	-0.142738	0.106212	-0.234167	0.314413	-0.114588	0	0	-0.0644359	-0.27902	-0.166408	1.34759	-0.156226	0	0	-0.363256	0.10546	-0.251312	0.234033	-0.471081	1.40948	0.655829	0.126348	0	0	-0.226464	-0.385419	0.0666513	0.964933	1.51425	0	0
1.13	2.86322	1.28556	-1.14037	0.636827	0.789385	0.958379	-0.174294	0.107805	-0.225939	0.290367	-0.117713	0	0	-0.0456172	-0.27578	-0.168952	1.3513	-0.144367	0	0	-0.371227	0.0995214	-0.246313	0.234494	-0.470706	1.40978	0.657255	0.124034	0	0	-0.237408	-0.384661	0.066822	0.966156	1.51042	0	0
1.14	2.88552	1.27994	-1.168	0.637629	0.799923	0.960108	-0.203425	0.107654	-0.218704	0.272337	-0.120245	0	0	-0.0285027	-0.272554	-0.175452	1.34906	-0.135168	0	0	-0.379823	0.093091	-0.240697	0.235643	-0.471132	1.41063	0.659896	0.122765	0	0	-0.247936	-0.38446	0.0676383	0.968082	1.50661	0	0
1.15	2.90787	1.27416	-1.19705	0.638429	0.810396	0.961701	-0.230222	0.105723	-0.212482	0.259822	-0.121596	0	0	-0.0135615	-0.270055	-0.187783	1.34103	-0.127671	0	0	-0.388771	0.0861006	-0.234097	0.237292	-0.472408	1.41193	0.663664	0.122147	0	0	-0.258157	-0.384545	0.0690797	0.970606	1.50279	0	0
1.16	2.92647	1.26887	-1.22444	0.639273	0.820922	0.963121	-0.256387	0.10352	-0.207668	0.245493	-0.123469	0	0	-0.000119544	-0.269777	-0.20716	1.32787	-0.121949	0	0	-0.396804	0.0792117	-0.225809	0.238761	-0.474436	1.41287	0.668142	0.121704	0	0	-0.267899	-0.38417	0.0708107	0.972743	1.49901	0	0
1.17	2.94178	1.26141	-1.2498	0.640188	0.831417	0.964477	-0.287182	0.103065	-0.202819	0.223094	-0.129886	0	0	0.00903235	-0.273404	-0.234071	1.30981	-0.118439	0	0	-0.40699	0.0733266	-0.215929	0.240331	-0.478225	1.41268	0.675382	0.120726	0	0	-0.277276	-0.384691	0.0737908	0.976153	1.49395	0	0
1.18	2.95369	1.25298	-1.27222	0.641114	0.841917	0.965635	-0.317807	0.103041	-0.19893	0.204751	-0.134799	0	0	0.0151852	-0.280063	-0.266768	1.28715	-0.118907	0	0	-0.417801	0.0681083	-0.205402	0.241606	-0.482869	1.41128	0.683961	0.119677	0	0	-0.286751	-0.385134	0.0759074	0.980449	1.49078	0	0
1.19	2.96399	1.24484	-1.29313	0.641879	0.85232	0.966539	-0.346804	0.101305	-0.194853	0.192495	-0.135552	0	0	0.0195336	-0.287462	-0.304207	1.25967	-0.122888	0	0	-0.428473	0.0631564	-0.194939	0.243115	-0.488286	1.40955	0.693464	0.119263	0	0	-0.295985	-0.384809	0.0769279	0.985057	1.48899	0	0
1.2	2.9739	1.23855	-1.31384	0.64257	0.862617	0.967096	-0.373137	0.0973859	-0.188542	0.178685	-0.137218	0	0	0.0235734	-0.29204	-0.340867	1.22688	-0.12724	0	0	-0.43741	0.0574838	-0.184713	0.244626	-0.493378	1.40778	0.702331	0.119401	0	0	-0.304803	-0.383879	0.0770143	0.988991	1.48814	0	0
1.21	3.00303	1.27088	-1.36328	0.644595	0.873083	0.962716	-0.339495	0.0673095	-0.164171	0.183842	-0.139268	0	0	0.0687511	-0.275952	-0.373142	1.20166	-0.125655	0	0	-0.406615	0.0318352	-0.170118	0.238643	-0.495815	1.40029	0.709324	0.119781	0	0	-0.31827	-0.38475	0.0756577	0.993749	1.48756	0	0
1.22	3.0062	1.26845	-1.37583	0.645051	0.883214	0.962856	-0.356175	0.0643966	-0.15969	0.180354	-0.135895	0	0	0.0750052	-0.276237	-0.400154	1.15833	-0.129898	0	0	-0.41049	0.0278265	-0.161075	0.239457	-0.496516	1.39812	0.709899	0.120834	0	0	-0.324101	-0.382215	0.0750362	0.992603	1.48791	0	0
1.23	3.00846	1.26405	-1.38719	0.645409	0.893072	0.962944	-0.378232	0.0629009	-0.150519	0.169017	-0.133261	0	0	0.0775186	-0.276029	-0.427505	1.1097	-0.140051	0	0	-0.417719	0.0245058	-0.151872	0.241005	-0.49863	1.39452	0.713054	0.12196	0	0	-0.329255	-0.379498	0.0727279	0.99294	1.48839	0	0
1.24	2.99046	1.24393	-1.37531	0.646847	0.903137	0.964343	-0.40944	0.0391561	-0.302473	0.190702	-0.157168	0	0	0.0613281	-0.290406	-0.458796	1.05556	-0.158138	0	0	-0.440303	0.0293862	-0.142524	0.242907	-0.499862	1.38958	0.718943	0.124102	0	0	-0.336103	-0.380819	0.0692378	0.998412	1.48796	0	0
1.25	2.98998	1.24156	-1.38038	0.646795	0.912822	0.963927	-0.426151	0.0400086	-0.301741	0.1859	-0.155006	0	0	0.0649393	-0.28623	-0.481331	1.00114	-0.16622	0	0	-0.445912	0.0276618	-0.136653	0.245045	-0.501248	1.38716	0.721225	0.125145	0	0	-0.339919	-0.378477	0.0671803	0.997466	1.48734	0	0
1.26	2.99369	1.21707	-1.38161	0.644121	0.922143	0.966176	-0.493296	0.0779352	-0.150051	0.137291	-0.121045	0	0	0.0402566	-0.279107	-0.505316	0.933704	-0.183891	0	0	-0.476625	0.0351774	-0.136733	0.251455	-0.509273	1.38358	0.728519	0.127692	0	0	-0.338143	-0.370728	0.0644595	0.993896	1.48839	0	0
1.27	2.99409	1.23241	-1.39091	0.646293	0.932604	0.962793	-0.467493	0.03895	-0.295683	0.169787	-0.150329	0	0	0.0611713	-0.273942	-0.53084	0.887617	-0.186246	0	0	-0.461709	0.0244958	-0.128829	0.24643	-0.505243	1.37579	0.728849	0.129172	0	0	-0.348815	-0.37406	0.0592961	0.998081	1.48587	0	0
1.28	3.00582	1.2132	-1.39304	0.643121	0.942993	0.964054	-0.523599	0.0741007	-0.174734	0.133787	-0.117641	0	0	0.0394317	-0.259367	-0.550049	0.820209	-0.188059	0	0	-0.483492	0.0299394	-0.137394	0.249051	-0.508652	1.37333	0.730122	0.130563	0	0	-0.35047	-0.368343	0.0578204	0.993539	1.48391	0	0
1.29	3.00363	1.21433	-1.39128	0.642605	0.953239	0.962602	-0.523599	0.0744204	-0.174354	0.132813	-0.106015	0	0	0.0414029	-0.249816	-0.569508	0.762058	-0.186033	0	0	-0.484968	0.0295386	-0.136094	0.249034	-0.508366	1.37078	0.730629	0.130726	0	0	-0.354652	-0.366115	0.0539093	0.991722	1.4819	0	0
1.3	3.00422	1.22068	-1.39111	0.641987	0.9634	0.960628	-0.523599	0.0721951	-0.178946	0.139762	-0.0879731	0	0	0.0488971	-0.235083	-0.579258	0.699045	-0.186047	0	0	-0.480467	0.0271779	-0.137129	0.247779	-0.50341	1.36631	0.72373	0.137231	0	0	-0.358363	-0.363465	0.0487924	0.987467	1.48098	0	0
1.31	2.9704	1.21939	-1.35485	0.642398	0.973244	0.959882	-0.523599	0.0755321	-0.316882	0.145675	-0.115237	0	0	0.0517603	-0.237133	-0.57769	0.636129	-0.188736	0	0	-0.482434	0.0373801	-0.134412	0.248292	-0.493858	1.36557	0.710528	0.142099	0	0	-0.357604	-0.363774	0.0486578	0.979578	1.47816	0	0
1.32	2.96112	1.23049	-1.34192	0.64136	0.983322	0.957303	-0.523599	0.077612	-0.319159	0.146936	-0.10467	0	0	0.0657639	-0.221973	-0.568595	0.572818	-0.186992	0	0	-0.472246	0.0386925	-0.137148	0.247414	-0.48847	1.36368	0.701954	0.144952	0	0	-0.358647	-0.361571	0.0472746	0.97192	1.478	0	0
1.33	2.94972	1.24242	-1.32682	0.640216	0.993312	0.954541	-0.523599	0.0798209	-0.315347	0.147817	-0.0999393	0	0	0.0797209	-0.206427	-0.554189	0.51192	-0.181274	0	0	-0.461223	0.0402968	-0.139934	0.246655	-0.483409	1.36167	0.693763	0.146567	0	0	-0.359104	-0.359186	0.0459205	0.963909	1.47921	0	0
1.34	2.9379	1.25302	-1.31129	0.63898	1.00327	0.951901	-0.523599	0.080794	-0.310317	0.153732	-0.0977745	0	0	0.0904248	-0.190829	-0.537361	0.454254	-0.171523	0	0	-0.451761	0.0420636	-0.142514	0.245758	-0.478638	1.35869	0.685879	0.146927	0	0	-0.358821	-0.357027	0.04505	0.955685	1.48168	0	0
1.35	2.92969	1.26333	-1.29868	0.637561	1.01355	0.94935	-0.523599	0.0811354	-0.306302	0.158926	-0.0930611	0	0	0.0981086	-0.173404	-0.517153	0.398077	-0.160823	0	0	-0.442266	0.0427875	-0.145678	0.243979	-0.473561	1.35689	0.677489	0.147496	0	0	-0.358197	-0.355364	0.0455885	0.947023	1.48185	0	0
1.36	2.92255	1.2733	-1.28782	0.636183	1.02403	0.94699	-0.523599	0.0811114	-0.305924	0.164527	-0.0868167	0	0	0.102465	-0.155571	-0.491885	0.34162	-0.153765	0	0	-0.432764	0.0425578	-0.148003	0.241915	-0.467555	1.35623	0.667205	0.148325	0	0	-0.357	-0.354164	0.0473489	0.937543	1.48265	0	0
1.37	2.94296	1.29001	-1.30593	0.634048	1.03486	0.943613	-0.523599	0.0773857	-0.205268	0.185203	-0.0396768	0	0	0.10911	-0.1267	-0.465893	0.288032	-0.152467	0	0	-0.417457	0.0328941	-0.152724	0.239188	-0.465331	1.35616	0.66254	0.149281	0	0	-0.359232	-0.352066	0.0470351	0.931135	1.48521	0	0
1.38	2.93711	1.29595	-1.30033	0.633239	1.04563	0.941824	-0.523599	0.0748848	-0.21177	0.199787	-0.0352775	0	0	0.108435	-0.117099	-0.445098	0.254289	-0.153757	0	0	-0.412056	0.0309846	-0.151008	0.236576	-0.459578	1.35433	0.653671	0.147743	0	0	-0.358976	-0.351936	0.048094	0.92396	1.48697	0	0
1.39	2.93277	1.29939	-1.2977	0.632602	1.05674	0.940277	-0.523599	0.0722587	-0.214719	0.213249	-0.0338813	0	0	0.110182	-0.11455	-0.439912	0.251054	-0.154549	0	0	-0.408683	0.0283359	-0.1484	0.233924	-0.45443	1.35323	0.646241	0.146021	0	0	-0.360681	-0.35241	0.0482796	0.91931	1.48804	0	0
1.4	2.93031	1.29974	-1.29777	0.632016	1.06824	0.938956	-0.523599	0.0689967	-0.217922	0.229105	-0.0338529	0	0	0.113918	-0.118694	-0.45125	0.279156	-0.15254	0	0	-0.408036	0.0255453	-0.145191	0.230808	-0.451347	1.35167	0.642541	0.143318	0	0	-0.364628	-0.35309	0.0469669	0.917939	1.48754	0	0
1.41	2.92813	1.2992	-1.29945	0.631398	1.08003	0.937767	-0.523599	0.0657662	-0.216334	0.242133	-0.0366106	0	0	0.117672	-0.126001	-0.469798	0.323908	-0.150484	0	0	-0.407861	0.0226101	-0.140485	0.227661	-0.450012	1.35166	0.640902	0.141802	0	0	-0.36914	-0.353642	0.045744	0.917503	1.48757	0	0
1.42	2.92909	1.29703	-1.30456	0.630652	1.09211	0.936871	-0.523599	0.0614218	-0.21459	0.258156	-0.0405808	0	0	0.11613	-0.132102	-0.486472	0.368315	-0.14768	0	0	-0.409152	0.0193132	-0.135335	0.223811	-0.449566	1.35151	0.640362	0.140264	0	0	-0.373796	-0.354198	0.0446276	0.917442	1.48849	0	0
1.43	2.90951	1.28324	-1.28889	0.630798	1.10437	0.937593	-0.523599	0.0509854	-0.341845	0.282171	-0.0797287	0	0	0.0993685	-0.147673	-0.497008	0.402698	-0.141699	0	0	-0.420945	0.0236833	-0.126948	0.220054	-0.446647	1.35106	0.636978	0.137885	0	0	-0.376605	-0.356983	0.0448984	0.917645	1.48674	0	0
1.44	2.93817	1.29135	-1.32182	0.628629	1.11676	0.935783	-0.523599	0.049572	-0.208518	0.29883	-0.0521356	0	0	0.0986734	-0.13105	-0.499603	0.41607	-0.140457	0	0	-0.413056	0.011782	-0.124321	0.21322	-0.450891	1.34683	0.640813	0.135035	0	0	-0.381197	-0.355708	0.0441297	0.917401	1.48469	0	0
